<svg xmlns="http://www.w3.org/2000/svg" width="385.046" height="318.999" viewBox="0 0 385.046 318.999"><defs><style>.a{fill:#aad4ff;}.b,.c{stroke:none;}.c{fill:#e9eaeb;}</style></defs><g class="a" transform="translate(-5957.001 14035)"><path class="b" d="M 6332.04736328125 -13716.5009765625 L 5981.04833984375 -13716.5009765625 C 5975.81005859375 -13716.5009765625 5971.54833984375 -13720.7626953125 5971.54833984375 -13726.0009765625 L 5971.54833984375 -14003.619140625 L 5971.54833984375 -14003.7685546875 L 5971.46630859375 -14003.8935546875 L 5957.92822265625 -14024.5 L 5971.04833984375 -14024.5 L 5971.54833984375 -14024.5 L 5971.54833984375 -14025 C 5971.54833984375 -14030.23828125 5975.81005859375 -14034.5 5981.04833984375 -14034.5 L 6332.04736328125 -14034.5 C 6337.28564453125 -14034.5 6341.54736328125 -14030.23828125 6341.54736328125 -14025 L 6341.54736328125 -13726.0009765625 C 6341.54736328125 -13720.7626953125 6337.28564453125 -13716.5009765625 6332.04736328125 -13716.5009765625 Z"/><path class="c" d="M 6332.04736328125 -13717.0009765625 C 6337.009765625 -13717.0009765625 6341.04736328125 -13721.0380859375 6341.04736328125 -13726.0009765625 L 6341.04736328125 -14025 C 6341.04736328125 -14029.962890625 6337.009765625 -14034 6332.04736328125 -14034 L 5981.04833984375 -14034 C 5976.0859375 -14034 5972.04833984375 -14029.962890625 5972.04833984375 -14025 L 5972.04833984375 -14024 L 5971.04833984375 -14024 L 5958.85498046875 -14024 L 5971.88427734375 -14004.16796875 L 5972.04833984375 -14003.91796875 L 5972.04833984375 -14003.619140625 L 5972.04833984375 -13726.0009765625 C 5972.04833984375 -13721.0380859375 5976.0859375 -13717.0009765625 5981.04833984375 -13717.0009765625 L 6332.04736328125 -13717.0009765625 M 6332.04736328125 -13716.0009765625 L 5981.04833984375 -13716.0009765625 C 5975.525390625 -13716.0009765625 5971.04833984375 -13720.4775390625 5971.04833984375 -13726.0009765625 L 5971.04833984375 -14003.619140625 L 5957.00146484375 -14025 L 5971.04833984375 -14025 C 5971.04833984375 -14030.5224609375 5975.525390625 -14035 5981.04833984375 -14035 L 6332.04736328125 -14035 C 6337.5703125 -14035 6342.04736328125 -14030.5224609375 6342.04736328125 -14025 L 6342.04736328125 -13726.0009765625 C 6342.04736328125 -13720.4775390625 6337.5703125 -13716.0009765625 6332.04736328125 -13716.0009765625 Z"/></g></svg>